<svg id="visual" viewBox="0 0 960 540" width="960" height="540" xmlns="http://www.w3.org/2000/svg" xmlns:xlink="http://www.w3.org/1999/xlink" version="1.1"><rect x="0" y="0" width="960" height="540" fill="#001220"></rect><path d="M0 385L22.8 384.2C45.7 383.3 91.3 381.7 137 382.7C182.7 383.7 228.3 387.3 274 378.5C319.7 369.7 365.3 348.3 411.2 346C457 343.7 503 360.3 548.8 368.8C594.7 377.3 640.3 377.7 686 381C731.7 384.3 777.3 390.7 823 393C868.7 395.3 914.3 393.7 937.2 392.8L960 392L960 541L937.2 541C914.3 541 868.7 541 823 541C777.3 541 731.7 541 686 541C640.3 541 594.7 541 548.8 541C503 541 457 541 411.2 541C365.3 541 319.7 541 274 541C228.3 541 182.7 541 137 541C91.3 541 45.7 541 22.8 541L0 541Z" fill="#5847eb"></path><path d="M0 356L22.8 362.3C45.7 368.7 91.3 381.3 137 386.8C182.7 392.3 228.3 390.7 274 388.2C319.7 385.7 365.3 382.3 411.2 385.7C457 389 503 399 548.8 397.7C594.7 396.3 640.3 383.7 686 380.3C731.7 377 777.3 383 823 389.2C868.7 395.3 914.3 401.7 937.2 404.8L960 408L960 541L937.2 541C914.3 541 868.7 541 823 541C777.3 541 731.7 541 686 541C640.3 541 594.7 541 548.8 541C503 541 457 541 411.2 541C365.3 541 319.7 541 274 541C228.3 541 182.7 541 137 541C91.3 541 45.7 541 22.8 541L0 541Z" fill="#433fc1"></path><path d="M0 424L22.8 426C45.7 428 91.3 432 137 429C182.7 426 228.3 416 274 413.5C319.7 411 365.3 416 411.2 417.8C457 419.7 503 418.3 548.8 424C594.7 429.7 640.3 442.3 686 441.5C731.7 440.7 777.3 426.3 823 416.7C868.7 407 914.3 402 937.2 399.5L960 397L960 541L937.2 541C914.3 541 868.7 541 823 541C777.3 541 731.7 541 686 541C640.3 541 594.7 541 548.8 541C503 541 457 541 411.2 541C365.3 541 319.7 541 274 541C228.3 541 182.7 541 137 541C91.3 541 45.7 541 22.8 541L0 541Z" fill="#323598"></path><path d="M0 441L22.8 441.7C45.7 442.3 91.3 443.7 137 450.3C182.7 457 228.3 469 274 475.8C319.7 482.7 365.3 484.3 411.2 483C457 481.7 503 477.3 548.8 474.3C594.7 471.3 640.3 469.7 686 465.7C731.7 461.7 777.3 455.3 823 450.8C868.7 446.3 914.3 443.7 937.2 442.3L960 441L960 541L937.2 541C914.3 541 868.7 541 823 541C777.3 541 731.7 541 686 541C640.3 541 594.7 541 548.8 541C503 541 457 541 411.2 541C365.3 541 319.7 541 274 541C228.3 541 182.7 541 137 541C91.3 541 45.7 541 22.8 541L0 541Z" fill="#252a70"></path><path d="M0 498L22.8 494C45.7 490 91.3 482 137 479.7C182.7 477.3 228.3 480.7 274 481.7C319.7 482.7 365.3 481.3 411.2 480.8C457 480.3 503 480.7 548.8 484C594.7 487.3 640.3 493.7 686 499.5C731.7 505.3 777.3 510.7 823 509.2C868.7 507.7 914.3 499.3 937.2 495.2L960 491L960 541L937.2 541C914.3 541 868.7 541 823 541C777.3 541 731.7 541 686 541C640.3 541 594.7 541 548.8 541C503 541 457 541 411.2 541C365.3 541 319.7 541 274 541C228.3 541 182.7 541 137 541C91.3 541 45.7 541 22.8 541L0 541Z" fill="#1c1f4a"></path></svg>