<svg id="visual" viewBox="0 0 540 960" width="540" height="960" xmlns="http://www.w3.org/2000/svg" xmlns:xlink="http://www.w3.org/1999/xlink" version="1.1"><rect x="0" y="0" width="540" height="960" fill="#001220"></rect><path d="M0 306L12.8 299.7C25.7 293.3 51.3 280.7 77 290.2C102.7 299.7 128.3 331.3 154 323.8C179.7 316.3 205.3 269.7 231.2 271.2C257 272.7 283 322.3 308.8 340.3C334.7 358.3 360.3 344.7 386 332.3C411.7 320 437.3 309 463 302.8C488.7 296.7 514.3 295.3 527.2 294.7L540 294L540 0L527.2 0C514.3 0 488.7 0 463 0C437.3 0 411.7 0 386 0C360.3 0 334.7 0 308.8 0C283 0 257 0 231.2 0C205.3 0 179.7 0 154 0C128.3 0 102.7 0 77 0C51.3 0 25.7 0 12.8 0L0 0Z" fill="#5847eb"></path><path d="M0 288L12.8 271.3C25.7 254.7 51.3 221.3 77 216.2C102.7 211 128.3 234 154 242.7C179.7 251.3 205.3 245.7 231.2 249.8C257 254 283 268 308.8 268.8C334.7 269.7 360.3 257.3 386 241C411.7 224.7 437.3 204.3 463 196.2C488.7 188 514.3 192 527.2 194L540 196L540 0L527.2 0C514.3 0 488.7 0 463 0C437.3 0 411.7 0 386 0C360.3 0 334.7 0 308.8 0C283 0 257 0 231.2 0C205.3 0 179.7 0 154 0C128.3 0 102.7 0 77 0C51.3 0 25.7 0 12.8 0L0 0Z" fill="#433fc1"></path><path d="M0 163L12.8 169.5C25.7 176 51.3 189 77 194.3C102.7 199.7 128.3 197.3 154 201.3C179.7 205.3 205.3 215.7 231.2 212.2C257 208.7 283 191.3 308.8 196.8C334.7 202.3 360.3 230.7 386 223.5C411.7 216.3 437.3 173.7 463 167C488.7 160.3 514.3 189.7 527.2 204.3L540 219L540 0L527.2 0C514.3 0 488.7 0 463 0C437.3 0 411.7 0 386 0C360.3 0 334.7 0 308.8 0C283 0 257 0 231.2 0C205.3 0 179.7 0 154 0C128.3 0 102.7 0 77 0C51.3 0 25.7 0 12.8 0L0 0Z" fill="#323598"></path><path d="M0 162L12.8 157.3C25.7 152.7 51.3 143.3 77 138.2C102.7 133 128.3 132 154 138.2C179.7 144.3 205.3 157.7 231.2 153.7C257 149.7 283 128.3 308.8 129.8C334.7 131.3 360.3 155.7 386 156.3C411.7 157 437.3 134 463 123.7C488.7 113.3 514.3 115.7 527.2 116.8L540 118L540 0L527.2 0C514.3 0 488.7 0 463 0C437.3 0 411.7 0 386 0C360.3 0 334.7 0 308.8 0C283 0 257 0 231.2 0C205.3 0 179.7 0 154 0C128.3 0 102.7 0 77 0C51.3 0 25.7 0 12.8 0L0 0Z" fill="#252a70"></path><path d="M0 78L12.8 83.5C25.7 89 51.3 100 77 98C102.7 96 128.3 81 154 77.2C179.7 73.3 205.3 80.7 231.2 79.3C257 78 283 68 308.8 66C334.7 64 360.3 70 386 69C411.7 68 437.3 60 463 62C488.7 64 514.3 76 527.2 82L540 88L540 0L527.2 0C514.3 0 488.7 0 463 0C437.3 0 411.7 0 386 0C360.3 0 334.7 0 308.8 0C283 0 257 0 231.2 0C205.3 0 179.7 0 154 0C128.3 0 102.7 0 77 0C51.3 0 25.7 0 12.8 0L0 0Z" fill="#1c1f4a"></path></svg>